# xmcd CD database file
#
# Track frame offsets:
#	150
#	19222
#	37625
#	52445
#	81010
#	101517
#	118422
#	133327
#	145317
#	162795
#	177397
#	195340
#	216710
#	232007
#	246832
#	267465
#
# Disc length: 3821 seconds
#
# Revision: 1
# Processed by: cddbd v1.5.2PL0 Copyright (c) Steve Scherf et al.
# Submitted via: CDex 1.70beta2
#
DISCID=f40eeb10
DTITLE=Various Artist - New Music Best Collection 14
DYEAR=1992
DGENRE=J-POP(J)
TTITLE0=アリス - チャンピオン
TTITLE1=アリス - 帰らざる日々
TTITLE2=オフコース - 眠れぬ夜
TTITLE3=オフコース - 言葉にできない
TTITLE4=石川優子 - 愛を眠らせないで
TTITLE5=石川優子 - シンデレラ サマー
TTITLE6=尾崎亜美 - マイ・ピュア・レディ
TTITLE7=チューリップ - 銀の指環
TTITLE8=甲斐バンド - HERO ヒーローになる時、それは今
TTITLE9=甲斐バンド - 裏切りの街角
TTITLE10=アリス - 今はもうだれも
TTITLE11=谷村新司 - 陽はまた昇る
TTITLE12=堀内孝雄 - 君のひとみは10000ボルト
TTITLE13=THE TIMERS - デイ・ドリーム・ビリーバー〜DAY DREAM BELIEVER〜
TTITLE14=ダウン・タウン・ブギウギ・バンド - 港のヨーコ・ヨコハマ・ヨコスカ
TTITLE15=寺尾聰 - ルビーの指環
EXTD=YEAR: 1992
EXTT0=
EXTT1=
EXTT2=
EXTT3=
EXTT4=
EXTT5=
EXTT6=
EXTT7=
EXTT8=
EXTT9=
EXTT10=
EXTT11=
EXTT12=
EXTT13=
EXTT14=
EXTT15=
PLAYORDER=
